<?xml version="1.0" encoding="utf-8"?>
<!-- Generator: Adobe Illustrator 20.0.0, SVG Export Plug-In . SVG Version: 6.00 Build 0)  -->
<svg version="1.1" id="Topography" xmlns="http://www.w3.org/2000/svg" xmlns:xlink="http://www.w3.org/1999/xlink" x="0px" y="0px"
	 viewBox="0 0 1200 1920" style="enable-background:new 0 0 1200 1920;" xml:space="preserve">
<style type="text/css">
	.st0{fill:#FFFFFF;}
</style>
<g>
	<g>
		<g>
			<path class="st0" d="M572.6,631.2h-6.5l-1.1,3.6h-2.3l5.4-16.6h2.5l5.6,16.6h-2.4L572.6,631.2z M572.1,629.3l-2.8-8.6l-2.6,8.6
				H572.1z"/>
			<path class="st0" d="M580.9,623.1v11.7h-1.8v-16.4h1.8l4.4,12.3l4.4-12.3h1.7v16.4h-1.9v-11.7l-4.2,11.7H585L580.9,623.1z"/>
			<path class="st0" d="M596.6,623.1v11.7h-1.8v-16.4h1.8l4.4,12.3l4.4-12.3h1.7v16.4h-1.9v-11.7l-4.2,11.7h-0.3L596.6,623.1z"/>
			<path class="st0" d="M619.9,631.2h-6.5l-1.1,3.6H610l5.4-16.6h2.5l5.6,16.6h-2.4L619.9,631.2z M619.3,629.3l-2.8-8.6l-2.6,8.6
				H619.3z"/>
			<path class="st0" d="M629.3,623.1v11.7h-2v-16.4h1.4l6.7,11.6v-11.6h2v16.4h-1.3L629.3,623.1z"/>
		</g>
		<circle class="st0" cx="547.5" cy="627.9" r="8.4"/>
	</g>
	<g>
		<g>
			<path class="st0" d="M477.1,563.3l-0.2-2.2c1.5,0.9,3.2,1.5,5,1.5c2.2,0,3.6-1,3.6-2.9c0-1.4-0.7-2.2-3.3-3l-0.7-0.2
				c-2.8-0.9-4-2-4-4.4c0-2.9,1.9-4.6,5.4-4.6c1.6,0,3.1,0.5,4.1,1l0.2,2.1c-1.3-0.7-2.9-1.1-4.3-1.1c-2.2,0-3.3,1.1-3.3,2.7
				c0,1.3,0.7,2.1,2.9,2.8l0.6,0.2c3.4,1.1,4.5,2.2,4.5,4.6c0,3.1-2.2,4.8-5.8,4.8C479.9,564.5,478.1,564,477.1,563.3z"/>
			<path class="st0" d="M501.2,560.7h-6.5l-1.1,3.6h-2.3l5.4-16.6h2.5l5.6,16.6h-2.4L501.2,560.7z M500.6,558.8l-2.8-8.6l-2.6,8.6
				H500.6z"/>
			<path class="st0" d="M509,547.8h2.1v14.6h8.1v1.9H509V547.8z"/>
			<path class="st0" d="M530.5,549.7v14.6h-2.1v-14.6h-5v-1.9h12.1v1.9H530.5z"/>
		</g>
		<circle class="st0" cx="460.2" cy="557.4" r="8.4"/>
	</g>
	<g>
		<g>
			<path class="st0" d="M487.1,1005.7l-2.4,2.9v4.7h-2.1v-16.4h2.1v9l7.2-9h2.4l-5.7,7l6.4,9.4h-2.6L487.1,1005.7z"/>
			<path class="st0" d="M506.8,1009.6h-6.5l-1.1,3.6h-2.3l5.4-16.6h2.5l5.6,16.6H508L506.8,1009.6z M506.2,1007.8l-2.8-8.6l-2.6,8.6
				H506.2z"/>
			<path class="st0" d="M516.4,1013.3h-2.1v-16.4h4.4c3.4,0,5.9,2,5.9,5.7c0,2.3-1,4.1-2.7,5.1l4,5.6h-2.7l-3.6-4.9
				c-0.2,0-0.5,0-0.8,0h-2.5L516.4,1013.3L516.4,1013.3z M518.3,1006.5c2.8,0,4.1-1.4,4.1-3.8c0-2.5-1.4-4-4.1-4h-1.9v7.8H518.3z"/>
			<path class="st0" d="M538.3,1009.6h-6.5l-1.1,3.6h-2.3l5.4-16.6h2.5l5.6,16.6h-2.4L538.3,1009.6z M537.7,1007.8l-2.8-8.6
				l-2.6,8.6H537.7z"/>
			<path class="st0" d="M550.1,1005.7l-2.4,2.9v4.7h-2.1v-16.4h2.1v9l7.2-9h2.4l-5.7,7l6.4,9.4h-2.6L550.1,1005.7z"/>
		</g>
		<circle class="st0" cx="465.9" cy="1006.4" r="8.4"/>
	</g>
	<g>
		<g>
			<path class="st0" d="M435.7,1148.7v14.6h-2.1v-14.6h-5v-1.9h12.1v1.9H435.7z"/>
			<path class="st0" d="M453.7,1159.6h-6.5l-1.1,3.6h-2.3l5.4-16.6h2.5l5.6,16.6h-2.4L453.7,1159.6z M453.1,1157.8l-2.8-8.6
				l-2.6,8.6H453.1z"/>
			<path class="st0" d="M461.6,1146.8h9.5v1.9h-7.4v6.5h6.6v1.9h-6.6v6.2h-2.1V1146.8z"/>
			<path class="st0" d="M476.7,1146.8h10.4v1.7h-4.2v13.1h4.2v1.7h-10.4v-1.7h4.1v-13.1h-4.1V1146.8z"/>
			<path class="st0" d="M493,1146.8h2.1v14.6h8.1v1.9H493V1146.8z"/>
			<path class="st0" d="M516.7,1159.6h-6.5l-1.1,3.6h-2.3l5.4-16.6h2.5l5.6,16.6h-2.4L516.7,1159.6z M516.1,1157.8l-2.8-8.6
				l-2.6,8.6H516.1z"/>
			<path class="st0" d="M532.5,1156.2h-6.6v7.1h-2.1v-16.4h2.1v7.5h6.6v-7.5h2.1v16.4h-2.1V1156.2z"/>
		</g>
		<circle class="st0" cx="412.8" cy="1156.3" r="8.4"/>
	</g>
	<g>
		<g>
			<path class="st0" d="M468,1265.3l-0.2-2.2c1.5,0.9,3.2,1.5,5,1.5c2.2,0,3.6-1,3.6-2.9c0-1.4-0.7-2.2-3.3-3l-0.7-0.2
				c-2.8-0.9-4-2-4-4.4c0-2.9,1.9-4.6,5.4-4.6c1.6,0,3.1,0.5,4.1,1l0.2,2.1c-1.3-0.7-2.9-1.1-4.3-1.1c-2.2,0-3.3,1.1-3.3,2.7
				c0,1.3,0.7,2.1,2.9,2.8l0.6,0.2c3.4,1.1,4.5,2.2,4.5,4.6c0,3.1-2.2,4.8-5.8,4.8C470.8,1266.5,469,1265.9,468,1265.3z"/>
			<path class="st0" d="M492.1,1259.2h-6.6v7.1h-2.1v-16.4h2.1v7.5h6.6v-7.5h2.1v16.4h-2.1V1259.2z"/>
			<path class="st0" d="M498.4,1258.1c0-5.4,2.5-8.6,6.3-8.6s6,3.2,6,8.6c0,5.7-2.7,8.5-6.3,8.5
				C500.7,1266.6,498.4,1263.6,498.4,1258.1z M508.6,1258c0-4-1.5-6.6-4-6.6c-2.3,0-4,2.3-4,6.6c0,4.4,1.6,6.6,4,6.6
				C506.9,1264.6,508.6,1262.4,508.6,1258z"/>
			<path class="st0" d="M520.3,1266.2h-5v-16.4h4.5c3.4,0,5.3,1.4,5.3,4.2c0,1.7-0.6,3.1-2.8,3.8c2.7,0.5,3.6,1.9,3.6,4
				C526,1264.9,523.8,1266.2,520.3,1266.2z M519.5,1257.1c2.4,0,3.6-0.8,3.6-2.7c0-2-1.2-2.8-3.6-2.8h-2v5.6L519.5,1257.1
				L519.5,1257.1z M520,1264.5c2.6,0,3.7-0.8,3.7-2.9c0-1.9-1.3-2.7-3.8-2.7h-2.5v5.6H520z"/>
			<path class="st0" d="M539.3,1262.6h-6.5l-1.1,3.6h-2.3l5.4-16.6h2.5l5.6,16.6h-2.4L539.3,1262.6z M538.8,1260.8l-2.8-8.6
				l-2.6,8.6H538.8z"/>
			<path class="st0" d="M551.1,1258.7l-2.4,2.9v4.7h-2.1v-16.4h2.1v9l7.2-9h2.4l-5.7,7l6.4,9.4h-2.6L551.1,1258.7z"/>
		</g>
		<circle class="st0" cx="451.2" cy="1259.3" r="8.4"/>
	</g>
	<g>
		<g>
			<path class="st0" d="M496.1,1360.7h-6.5l-1.1,3.6h-2.3l5.4-16.6h2.5l5.6,16.6h-2.4L496.1,1360.7z M495.5,1358.8l-2.8-8.6
				l-2.6,8.6H495.5z"/>
			<path class="st0" d="M503.1,1346.9h6.6v15.8h4.5v1.7h-11.1v-1.7h4.5v-14.1h-4.5V1346.9z"/>
			<path class="st0" d="M520,1356.6h8.6v1.9H520V1356.6z"/>
			<path class="st0" d="M536,1347.9h8v8.3c0,6.3-2.3,8.3-6.8,8.3c-0.7,0-1.3-0.1-2-0.3l-0.2-2c0.7,0.2,1.3,0.3,1.9,0.3
				c3.9,0,5-2,5-6.5v-6.2H536V1347.9z"/>
			<path class="st0" d="M559.1,1360.7h-6.5l-1.1,3.6h-2.3l5.4-16.6h2.5l5.6,16.6h-2.4L559.1,1360.7z M558.5,1358.8l-2.8-8.6
				l-2.6,8.6H558.5z"/>
			<path class="st0" d="M566.9,1347.9h9.5v1.9H569v6.5h6.6v1.9H569v6.2h-2.1V1347.9z"/>
			<path class="st0" d="M590.6,1360.7H584l-1.1,3.6h-2.3l5.4-16.6h2.5l5.6,16.6h-2.4L590.6,1360.7z M590,1358.8l-2.8-8.6l-2.6,8.6
				H590z"/>
			<path class="st0" d="M600.2,1364.3h-2.1v-16.4h4.4c3.4,0,5.9,2,5.9,5.7c0,2.3-1,4.1-2.7,5.1l4,5.6H607l-3.6-4.9
				c-0.2,0-0.5,0-0.8,0h-2.5L600.2,1364.3L600.2,1364.3z M602.1,1357.6c2.8,0,4.1-1.4,4.1-3.8c0-2.5-1.4-4-4.1-4h-1.9v7.8H602.1z"/>
		</g>
		<circle class="st0" cx="628.9" cy="1357.4" r="8.4"/>
	</g>
	<g>
		<g>
			<path class="st0" d="M184.2,1600.9h-6.5l-1.1,3.6h-2.3l5.4-16.6h2.5l5.6,16.6h-2.4L184.2,1600.9z M183.6,1599l-2.8-8.6l-2.6,8.6
				H183.6z"/>
			<path class="st0" d="M200.8,1603l3.3,4.9h-2.5l-2.5-3.6c-0.8,0.4-1.6,0.6-2.5,0.6c-3.7,0-6-2.9-6-8.5c0-5.4,2.5-8.6,6.3-8.6
				s6,3.2,6,8.6C202.9,1599.4,202.1,1601.6,200.8,1603z M196.7,1602.9c0.4,0,0.9-0.1,1.3-0.3l-2.8-4h2.5l1.8,2.7
				c0.7-1.1,1.2-2.7,1.2-4.9c0-4-1.5-6.6-4-6.6c-2.3,0-4,2.3-4,6.6C192.7,1600.7,194.3,1602.9,196.7,1602.9z"/>
			<path class="st0" d="M215.7,1600.9h-6.5l-1.1,3.6h-2.3l5.4-16.6h2.5l5.6,16.6h-2.4L215.7,1600.9z M215.1,1599l-2.8-8.6l-2.6,8.6
				H215.1z"/>
			<path class="st0" d="M228.2,1604.5h-5v-16.4h4.5c3.4,0,5.3,1.4,5.3,4.2c0,1.7-0.6,3.1-2.8,3.8c2.7,0.5,3.6,1.9,3.6,4
				C233.9,1603.2,231.7,1604.5,228.2,1604.5z M227.4,1595.4c2.4,0,3.6-0.8,3.6-2.7c0-2-1.2-2.8-3.6-2.8h-2v5.6L227.4,1595.4
				L227.4,1595.4z M227.9,1602.7c2.6,0,3.7-0.8,3.7-2.9c0-1.9-1.3-2.7-3.8-2.7h-2.5v5.6H227.9z"/>
			<path class="st0" d="M247.2,1600.9h-6.5l-1.1,3.6h-2.3l5.4-16.6h2.5l5.6,16.6h-2.4L247.2,1600.9z M246.6,1599l-2.8-8.6l-2.6,8.6
				H246.6z"/>
		</g>
		<circle class="st0" cx="159" cy="1597.6" r="8.4"/>
	</g>
	<g>
		<g>
			<path class="st0" d="M466.5,1410.9v11.7h-1.8v-16.4h1.8l4.4,12.3l4.4-12.3h1.7v16.4h-1.9v-11.7l-4.2,11.7h-0.3L466.5,1410.9z"/>
			<path class="st0" d="M489.8,1419h-6.5l-1.1,3.6h-2.3l5.4-16.6h2.5l5.6,16.6H491L489.8,1419z M489.2,1417.1l-2.8-8.6l-2.6,8.6
				H489.2z"/>
			<path class="st0" d="M505.5,1419H499l-1.1,3.6h-2.3l5.4-16.6h2.5l5.6,16.6h-2.4L505.5,1419z M504.9,1417.1l-2.8-8.6l-2.6,8.6
				H504.9z"/>
			<path class="st0" d="M514.9,1410.9v11.7h-2v-16.4h1.4l6.7,11.6v-11.6h2v16.4h-1.3L514.9,1410.9z"/>
		</g>
		<circle class="st0" cx="448.9" cy="1415.7" r="8.4"/>
	</g>
	<g>
		<g>
			<path class="st0" d="M506,291.2h10.4v1.7h-4.2V306h4.2v1.7H506V306h4.1v-13.1H506V291.2z"/>
			<path class="st0" d="M524.1,307.6H522v-16.4h4.4c3.4,0,5.9,2,5.9,5.7c0,2.3-1,4.1-2.7,5.1l4,5.6H531l-3.6-4.9c-0.2,0-0.5,0-0.8,0
				h-2.5L524.1,307.6L524.1,307.6z M526,300.9c2.8,0,4.1-1.4,4.1-3.8c0-2.5-1.4-4-4.1-4h-1.9v7.8H526z"/>
			<path class="st0" d="M542.7,307.6h-5v-16.4h4.5c3.4,0,5.3,1.4,5.3,4.2c0,1.7-0.6,3.1-2.8,3.8c2.7,0.5,3.6,1.9,3.6,4
				C548.4,306.3,546.2,307.6,542.7,307.6z M541.9,298.5c2.4,0,3.6-0.8,3.6-2.7c0-2-1.2-2.8-3.6-2.8h-2v5.6h2V298.5z M542.5,305.9
				c2.6,0,3.7-0.8,3.7-2.9c0-1.9-1.3-2.7-3.8-2.7h-2.5v5.6H542.5z"/>
			<path class="st0" d="M553.3,291.2h10.4v1.7h-4.2V306h4.2v1.7h-10.4V306h4.1v-13.1h-4.1V291.2z"/>
			<path class="st0" d="M569,291.2h4.6c5,0,6.9,3.2,6.9,8.1c0,5.1-2.2,8.3-6.9,8.3H569V291.2z M573.2,305.7c3.5,0,5-2.2,5-6.4
				c0-4-1.3-6.2-5-6.2h-2.1v12.7h2.1V305.7z"/>
		</g>
		<circle class="st0" cx="489.3" cy="300.7" r="8.4"/>
	</g>
	<g>
		<g>
			<path class="st0" d="M553.1,1755.3h-6.5l-1.1,3.6h-2.3l5.4-16.6h2.5l5.6,16.6h-2.4L553.1,1755.3z M552.5,1753.5l-2.8-8.6
				l-2.6,8.6H552.5z"/>
			<path class="st0" d="M560.1,1741.5h6.6v15.8h4.5v1.7h-11.1v-1.7h4.5v-14.1h-4.5V1741.5z"/>
			<path class="st0" d="M577.1,1751.2h8.6v1.9h-8.6V1751.2z"/>
			<path class="st0" d="M592.8,1747.3v11.7H591v-16.4h1.8l4.4,12.3l4.4-12.3h1.7v16.4h-1.9v-11.7l-4.2,11.7H597L592.8,1747.3z"/>
			<path class="st0" d="M607.3,1752.8v-10.3h2.1v10.3c0,3.5,1.3,4.5,3.4,4.5s3.4-1.1,3.4-4.7v-10.1h2.1v10c0,4.8-2.2,6.7-5.6,6.7
				C609.4,1759.2,607.3,1757.7,607.3,1752.8z"/>
			<path class="st0" d="M623.4,1742.5h4.6c5,0,6.9,3.2,6.9,8.1c0,5.1-2.2,8.3-6.9,8.3h-4.5L623.4,1742.5L623.4,1742.5z
				 M627.6,1757.1c3.5,0,5-2.2,5-6.4c0-4-1.3-6.2-5-6.2h-2.1v12.7L627.6,1757.1L627.6,1757.1z"/>
			<path class="st0" d="M647.6,1755.3h-6.5l-1.1,3.6h-2.3l5.4-16.6h2.5l5.6,16.6h-2.4L647.6,1755.3z M647,1753.5l-2.8-8.6l-2.6,8.6
				H647z"/>
			<path class="st0" d="M660.2,1746.4l-3.2,12.5h-2l-2.1-16.4h1.9l1.6,12.8l3.3-12.8h1.3l3.2,12.8l1.5-12.8h1.8l-2.1,16.4h-2
				L660.2,1746.4z"/>
			<path class="st0" d="M675.9,1746.4l-3.2,12.5h-2l-2.1-16.4h1.9l1.6,12.8l3.3-12.8h1.3l3.2,12.8l1.5-12.8h1.8l-2.1,16.4h-2
				L675.9,1746.4z"/>
			<path class="st0" d="M694.8,1755.3h-6.5l-1.1,3.6h-2.3l5.4-16.6h2.5l5.6,16.6H696L694.8,1755.3z M694.2,1753.5l-2.8-8.6l-2.6,8.6
				H694.2z"/>
			<path class="st0" d="M704.5,1758.9h-2.1v-16.4h4.4c3.4,0,5.9,2,5.9,5.7c0,2.3-1,4.1-2.7,5.1l4,5.6h-2.7l-3.6-4.9
				c-0.2,0-0.5,0-0.8,0h-2.5L704.5,1758.9L704.5,1758.9z M706.3,1752.2c2.8,0,4.1-1.4,4.1-3.8c0-2.5-1.4-4-4.1-4h-1.9v7.8H706.3z"/>
			<path class="st0" d="M726.3,1755.3h-6.5l-1.1,3.6h-2.3l5.4-16.6h2.5l5.6,16.6h-2.4L726.3,1755.3z M725.7,1753.5l-2.8-8.6
				l-2.6,8.6H725.7z"/>
		</g>
		<circle class="st0" cx="528" cy="1752" r="8.4"/>
	</g>
	<g>
		<g>
			<path class="st0" d="M708.8,545h-12.2v-0.3l8.8-14.2h-8.1v-1.9h11.3v0.3l-8.9,14.2h9v1.9H708.8z"/>
			<path class="st0" d="M721.9,541.4h-6.5l-1.1,3.6H712l5.4-16.6h2.5l5.6,16.6H723L721.9,541.4z M721.3,539.5l-2.8-8.6l-2.6,8.6
				H721.3z"/>
			<path class="st0" d="M731.5,545h-2.1v-16.4h4.4c3.4,0,5.9,2,5.9,5.7c0,2.3-1,4.1-2.7,5.1l4,5.6h-2.7l-3.6-4.9c-0.2,0-0.5,0-0.8,0
				h-2.5L731.5,545L731.5,545z M733.4,538.3c2.8,0,4.1-1.4,4.1-3.8c0-2.5-1.4-4-4.1-4h-1.9v7.8H733.4z"/>
			<path class="st0" d="M754.2,543.5l3.3,4.9H755l-2.5-3.6c-0.8,0.4-1.6,0.6-2.5,0.6c-3.7,0-6-2.9-6-8.5c0-5.4,2.5-8.6,6.3-8.6
				s6,3.2,6,8.6C756.3,539.9,755.5,542.1,754.2,543.5z M750.1,543.4c0.4,0,0.9-0.1,1.3-0.3l-2.8-4h2.5l1.8,2.7
				c0.7-1.1,1.2-2.7,1.2-4.9c0-4-1.5-6.6-4-6.6c-2.3,0-4,2.3-4,6.6S747.7,543.4,750.1,543.4z"/>
			<path class="st0" d="M769.1,541.4h-6.5l-1.1,3.6h-2.3l5.4-16.6h2.5l5.6,16.6h-2.4L769.1,541.4z M768.5,539.5l-2.8-8.6l-2.6,8.6
				H768.5z"/>
		</g>
		<circle class="st0" cx="681" cy="538.1" r="8.4"/>
	</g>
	<g>
		<g>
			<path class="st0" d="M844.7,675.1h-6.5l-1.1,3.6h-2.3l5.4-16.6h2.5l5.6,16.6h-2.4L844.7,675.1z M844.1,673.2l-2.8-8.6l-2.6,8.6
				H844.1z"/>
			<path class="st0" d="M863.1,678.7H851v-0.3l8.8-14.2h-8.1v-1.9H863v0.3l-8.9,14.2h9V678.7z"/>
			<path class="st0" d="M870.1,678.7H868v-16.4h4.4c3.4,0,5.9,2,5.9,5.7c0,2.3-1,4.1-2.7,5.1l4,5.6h-2.7l-3.6-4.9
				c-0.2,0-0.5,0-0.8,0H870L870.1,678.7L870.1,678.7z M871.9,671.9c2.8,0,4.1-1.4,4.1-3.8c0-2.5-1.4-4-4.1-4H870v7.8H871.9z"/>
			<path class="st0" d="M891.9,675.1h-6.5l-1.1,3.6H882l5.4-16.6h2.5l5.6,16.6h-2.4L891.9,675.1z M891.3,673.2l-2.8-8.6l-2.6,8.6
				H891.3z"/>
			<path class="st0" d="M908.5,677.2l3.3,4.9h-2.5l-2.5-3.6c-0.8,0.4-1.6,0.6-2.5,0.6c-3.7,0-6-2.9-6-8.5c0-5.4,2.5-8.6,6.3-8.6
				s6,3.2,6,8.6C910.6,673.6,909.8,675.8,908.5,677.2z M904.4,677c0.4,0,0.9-0.1,1.3-0.3l-2.8-4h2.5l1.8,2.7
				c0.7-1.1,1.2-2.7,1.2-4.9c0-4-1.5-6.6-4-6.6c-2.3,0-4,2.3-4,6.6C900.4,674.9,902,677,904.4,677z"/>
		</g>
		<circle class="st0" cx="928" cy="671.8" r="8.4"/>
	</g>
	<g>
		<g>
			<path class="st0" d="M654.1,467.7H645v-0.3l6.7-10.7h-6.2v-1.4h8.5v0.2l-6.7,10.7h6.8V467.7z"/>
			<path class="st0" d="M663.4,466.6c-0.6,0.7-1.6,1.2-2.9,1.2c-1.8,0-3-0.7-3-2.6s1.6-3,5.9-3.2c-0.1-1.5-1-2.1-2.4-2.1
				c-1,0-1.9,0.3-2.8,1l0.3-1.6c0.8-0.5,1.7-0.8,2.8-0.8c2.4,0,3.7,1.3,3.7,3.5v5.7h-1.2L663.4,466.6z M660.9,466.5
				c0.8,0,1.8-0.4,2.4-1v-2.4c-3,0.2-4.4,0.8-4.4,2C658.9,466.1,659.6,466.5,660.9,466.5z"/>
			<path class="st0" d="M669.4,458.7h4.2v2.5c1.2-1.8,2.7-2.6,4.4-2.6l0.1,1.6c-1.6,0-3.2,0.9-4.5,2.4v3.9h3.9v1.3h-8.1v-1.3h2.6
				V460h-2.6L669.4,458.7L669.4,458.7z"/>
			<path class="st0" d="M689,471h-1.6v-3.9c-0.6,0.5-1.4,0.7-2.4,0.7c-2.4,0-4-1.6-4-4.6c0-2.9,1.8-4.7,4.3-4.7c1,0,1.8,0.2,2.5,0.7
				l0.4-0.6h0.9V471H689z M685.3,466.5c0.9,0,1.5-0.3,2.1-0.8v-5.2c-0.6-0.4-1.2-0.6-2.1-0.6c-1.7,0-2.8,1.3-2.8,3.3
				C682.6,465.2,683.6,466.5,685.3,466.5z"/>
			<path class="st0" d="M699.1,466.6c-0.6,0.7-1.6,1.2-2.9,1.2c-1.8,0-3-0.7-3-2.6s1.6-3,5.9-3.2c-0.1-1.5-1-2.1-2.4-2.1
				c-1,0-1.9,0.3-2.8,1l0.3-1.6c0.8-0.5,1.7-0.8,2.8-0.8c2.4,0,3.7,1.3,3.7,3.5v5.7h-1.2L699.1,466.6z M696.6,466.5
				c0.9,0,1.8-0.4,2.4-1v-2.4c-3,0.2-4.4,0.8-4.4,2C694.6,466.1,695.3,466.5,696.6,466.5z"/>
			<path class="st0" d="M647.5,485h-1.6v-12.4h3.3c2.5,0,4.5,1.5,4.5,4.3c0,1.7-0.8,3.1-2.1,3.9l3,4.2h-2l-2.7-3.7
				c-0.2,0-0.4,0-0.6,0h-1.9L647.5,485L647.5,485z M648.9,479.9c2.1,0,3.1-1.1,3.1-2.8c0-1.9-1.1-3.1-3.1-3.1h-1.4v5.9H648.9z"/>
			<path class="st0" d="M657.4,476h5v7.8h3.3v1.3h-8.4v-1.3h3.5v-6.5h-3.5V476H657.4z M662.5,471.7v1.8h-1.9v-1.8H662.5z"/>
			<path class="st0" d="M674.1,485h-1.4l-3.9-9h1.7l2.9,6.9l3-6.9h1.6L674.1,485z"/>
			<path class="st0" d="M685.7,485.2c-2.4,0-4.5-1.2-4.5-4.6c0-3.2,2-4.7,4.2-4.7c2.7,0,3.9,1.9,3.9,4.9h-6.6
				c0.1,2.3,1.6,3.1,3.2,3.1c1.1,0,2-0.2,2.8-0.7l-0.2,1.4C687.9,485,686.9,485.2,685.7,485.2z M682.8,479.6h5.1
				c-0.2-1.7-1.1-2.5-2.5-2.5C684.3,477.2,683.1,477.8,682.8,479.6z"/>
			<path class="st0" d="M693.2,476h4.2v2.5c1.2-1.8,2.7-2.6,4.4-2.6l0.1,1.6c-1.6,0-3.2,0.9-4.5,2.4v3.9h3.9v1.3h-8.1v-1.3h2.6v-6.5
				h-2.6L693.2,476L693.2,476z"/>
		</g>
	</g>
	<g>
		<g>
			<path class="st0" d="M286,416.1h6.1v6.3c0,4.8-1.8,6.3-5.2,6.3c-0.5,0-1-0.1-1.5-0.2l-0.2-1.5c0.5,0.2,1,0.3,1.5,0.3
				c2.9,0,3.8-1.5,3.8-4.9v-4.7H286V416.1z"/>
			<path class="st0" d="M296.8,424c0-2.9,1.8-4.7,4.2-4.7c2.7,0,4.1,1.8,4.1,4.6c0,2.8-1.6,4.7-4.2,4.7
				C298.3,428.7,296.8,426.9,296.8,424z M303.5,424c0-2.1-1-3.3-2.6-3.3c-1.5,0-2.6,1.2-2.6,3.3c0,2.2,1.1,3.3,2.6,3.3
				C302.5,427.3,303.5,426.2,303.5,424z"/>
			<path class="st0" d="M308.8,419.5h4.2v2.5c1.2-1.8,2.7-2.6,4.4-2.6l0.1,1.6c-1.6,0-3.2,0.9-4.5,2.4v3.9h3.9v1.3h-8.1v-1.3h2.6
				v-6.5h-2.6V419.5z"/>
			<path class="st0" d="M327.1,427.8c-0.7,0.5-1.5,0.9-2.6,0.9c-2.4,0-4-1.6-4-4.6c0-2.9,1.8-4.7,4.3-4.7c0.9,0,1.5,0.2,2.2,0.5
				v-4.6h1.6v13.2h-1L327.1,427.8z M324.8,427.3c0.9,0,1.5-0.3,2.1-0.8v-5.2c-0.6-0.4-1.2-0.6-2.1-0.6c-1.7,0-2.8,1.3-2.8,3.3
				C322,426.1,323.1,427.3,324.8,427.3z"/>
			<path class="st0" d="M338.5,427.5c-0.6,0.7-1.6,1.2-2.9,1.2c-1.8,0-3-0.7-3-2.6s1.6-3,5.9-3.2c-0.1-1.5-1-2.1-2.4-2.1
				c-1,0-1.9,0.3-2.8,1l0.3-1.6c0.8-0.5,1.7-0.8,2.8-0.8c2.4,0,3.7,1.3,3.7,3.5v5.7h-1.2L338.5,427.5z M336,427.4
				c0.9,0,1.8-0.4,2.4-1V424c-3,0.2-4.4,0.8-4.4,2C334.1,426.9,334.7,427.4,336,427.4z"/>
			<path class="st0" d="M346.5,421.8v6.7h-1.6v-9h1.2l0.3,1c0.8-0.7,1.7-1.1,2.7-1.1c1.9,0,3.1,1.1,3.1,3.7v5.5h-1.6v-5.2
				c0-1.8-0.7-2.4-2-2.4C347.9,420.9,347.2,421.2,346.5,421.8z"/>
			<path class="st0" d="M298.8,445.9h-1.6v-12.4h3.3c2.5,0,4.5,1.5,4.5,4.3c0,1.7-0.8,3.1-2.1,3.9l3,4.2h-2l-2.7-3.7
				c-0.2,0-0.4,0-0.6,0h-1.9v3.7H298.8z M300.2,440.8c2.1,0,3.1-1.1,3.1-2.8c0-1.9-1.1-3.1-3.1-3.1h-1.4v5.9H300.2z"/>
			<path class="st0" d="M308.7,436.9h5v7.8h3.3v1.3h-8.4v-1.3h3.5v-6.5h-3.5v-1.3H308.7z M313.8,432.5v1.8h-1.9v-1.8H313.8z"/>
			<path class="st0" d="M325.4,445.9H324l-3.9-9h1.7l2.9,6.9l3-6.9h1.6L325.4,445.9z"/>
			<path class="st0" d="M337,446c-2.4,0-4.5-1.2-4.5-4.6c0-3.2,2-4.7,4.2-4.7c2.7,0,3.9,1.9,3.9,4.9H334c0.1,2.3,1.6,3.1,3.2,3.1
				c1.1,0,2-0.2,2.8-0.7l-0.2,1.4C339.2,445.8,338.2,446,337,446z M334.1,440.5h5.1c-0.2-1.7-1.1-2.5-2.5-2.5
				C335.6,438,334.4,438.7,334.1,440.5z"/>
			<path class="st0" d="M344.5,436.9h4.2v2.5c1.2-1.8,2.7-2.6,4.4-2.6l0.1,1.6c-1.6,0-3.2,0.9-4.5,2.4v3.9h3.9v1.3h-8.1v-1.3h2.6
				v-6.5h-2.6V436.9z"/>
		</g>
	</g>
	<g>
		<g>
			<path class="st0" d="M429.5,802.9v8.8h-1.3v-12.4h1.4l3.3,9.3l3.3-9.3h1.3v12.4h-1.4v-8.8l-3.2,8.8h-0.3L429.5,802.9z"/>
			<path class="st0" d="M446.8,810.7c-0.8,0.7-1.7,1.1-2.7,1.1c-1.9,0-3.1-1.1-3.1-3.7v-5.5h1.6v5.2c0,1.8,0.7,2.4,2,2.4
				c0.8,0,1.4-0.3,2.2-0.9v-6.7h1.6v9h-1.2L446.8,810.7z"/>
			<path class="st0" d="M453.5,802.7h5.1v8.2c0,3.2-1.5,4.2-3.7,4.2c-0.6,0-1.1-0.1-1.6-0.3l-0.1-1.4c0.6,0.2,1,0.3,1.5,0.3
				c1.7,0,2.4-0.8,2.4-2.7v-7h-3.6L453.5,802.7L453.5,802.7z M458.6,798.4v1.8h-1.9v-1.8H458.6z"/>
			<path class="st0" d="M468.8,811.9c-2.4,0-4.5-1.2-4.5-4.6c0-3.2,2-4.7,4.2-4.7c2.7,0,3.9,1.9,3.9,4.9h-6.6
				c0.1,2.3,1.6,3.1,3.2,3.1c1.1,0,2-0.2,2.8-0.7l-0.2,1.4C471,811.7,470,811.9,468.8,811.9z M465.9,806.3h5.1
				c-0.2-1.7-1.1-2.5-2.5-2.5C467.4,803.8,466.2,804.5,465.9,806.3z"/>
			<path class="st0" d="M480.4,811.9c-1,0-1.8-0.2-2.5-0.7l-0.3,0.6h-0.9v-13.2h1.6v4.8c0.6-0.5,1.4-0.8,2.4-0.8c2.4,0,4,1.6,4,4.6
				C484.7,810,482.9,811.9,480.4,811.9z M478.2,804.8v5.2c0.6,0.4,1.2,0.6,2.1,0.6c1.7,0,2.8-1.3,2.8-3.3s-1.1-3.2-2.8-3.2
				C479.4,804,478.9,804.2,478.2,804.8z"/>
		</g>
	</g>
	<g>
		<g>
			<path class="st0" d="M435.2,755.7h-5v5.4h-1.6v-12.4h1.6v5.7h5v-5.7h1.6v12.4h-1.6V755.7z"/>
			<path class="st0" d="M440.5,752.1h5v7.8h3.3v1.3h-8.4v-1.3h3.5v-6.5h-3.5v-1.3H440.5z M445.6,747.7v1.8h-1.9v-1.8H445.6z"/>
			<path class="st0" d="M458.9,760.4c-0.7,0.5-1.5,0.9-2.6,0.9c-2.4,0-4-1.6-4-4.6c0-2.9,1.8-4.7,4.3-4.7c0.9,0,1.5,0.2,2.2,0.5
				v-4.6h1.6v13.2h-1L458.9,760.4z M456.5,759.9c0.9,0,1.5-0.3,2.1-0.8v-5.2c-0.6-0.4-1.2-0.6-2.1-0.6c-1.7,0-2.8,1.3-2.8,3.3
				C453.8,758.6,454.8,759.9,456.5,759.9z"/>
			<path class="st0" d="M470.3,760.1c-0.6,0.7-1.6,1.2-2.9,1.2c-1.8,0-3-0.7-3-2.6c0-1.9,1.6-3,5.9-3.2c-0.1-1.5-1-2.1-2.4-2.1
				c-1,0-1.9,0.3-2.8,1l0.3-1.6c0.8-0.5,1.7-0.8,2.8-0.8c2.4,0,3.7,1.3,3.7,3.5v5.7h-1.2L470.3,760.1z M467.8,760
				c0.9,0,1.8-0.4,2.4-1v-2.4c-3,0.2-4.4,0.8-4.4,2C465.8,759.5,466.5,760,467.8,760z"/>
			<path class="st0" d="M478.3,754.4v6.7h-1.6v-9h1.2l0.3,1c0.8-0.7,1.7-1.1,2.7-1.1c1.9,0,3.1,1.1,3.1,3.7v5.5h-1.6V756
				c0-1.8-0.7-2.4-2-2.4C479.7,753.5,479,753.8,478.3,754.4z"/>
		</g>
	</g>
	<g>
		<g>
			<path class="st0" d="M319.6,1050.9h-5v5.4H313v-12.4h1.6v5.7h5v-5.7h1.6v12.4h-1.6V1050.9z"/>
			<path class="st0" d="M330.8,1055.2c-0.6,0.7-1.6,1.2-2.9,1.2c-1.8,0-3-0.7-3-2.6s1.6-3,5.9-3.2c-0.1-1.5-1-2.1-2.4-2.1
				c-1,0-1.9,0.3-2.8,1l0.3-1.6c0.8-0.5,1.7-0.8,2.8-0.8c2.4,0,3.7,1.3,3.7,3.5v5.7h-1.2L330.8,1055.2z M328.3,1055.1
				c0.9,0,1.8-0.4,2.4-1v-2.4c-3,0.2-4.4,0.8-4.4,2C326.4,1054.6,327.1,1055.1,328.3,1055.1z"/>
			<path class="st0" d="M337.1,1055.7l-0.1-1.5c1,0.6,2.3,0.9,3.6,0.9c1.6,0,2.6-0.4,2.6-1.4c0-0.7-0.3-1.1-2.4-1.5l-0.3-0.1
				c-2.4-0.5-3.1-1.2-3.1-2.5c0-1.6,1.4-2.5,3.7-2.5c1.3,0,2.2,0.2,3,0.5l0.1,1.4c-0.9-0.4-2-0.6-3.2-0.6c-1.4,0-2.3,0.4-2.3,1.2
				c0,0.7,0.4,1,2.4,1.4l0.4,0.1c2.6,0.5,3.1,1.4,3.1,2.6c0,1.8-1.6,2.7-4.1,2.7C339.3,1056.4,338,1056.2,337.1,1055.7z"/>
			<path class="st0" d="M354.6,1055.2c-0.6,0.7-1.6,1.2-2.9,1.2c-1.8,0-3-0.7-3-2.6s1.6-3,5.9-3.2c-0.1-1.5-1-2.1-2.4-2.1
				c-1,0-1.9,0.3-2.8,1l0.3-1.6c0.8-0.5,1.7-0.8,2.8-0.8c2.4,0,3.7,1.3,3.7,3.5v5.7H355L354.6,1055.2z M352.1,1055.1
				c0.9,0,1.8-0.4,2.4-1v-2.4c-3,0.2-4.4,0.8-4.4,2C350.2,1054.6,350.9,1055.1,352.1,1055.1z"/>
		</g>
	</g>
	<g>
		<path class="st0" d="M437.8,196.7h-1.6v-4.3l-4.6-8.1h1.9l3.6,6.7l3.6-6.7h1.8l-4.6,8.1L437.8,196.7L437.8,196.7z"/>
		<path class="st0" d="M450.7,195.6c-0.6,0.7-1.6,1.2-2.9,1.2c-1.8,0-3-0.7-3-2.6c0-1.9,1.6-3,5.9-3.2c-0.1-1.5-1-2.1-2.4-2.1
			c-1,0-1.9,0.3-2.8,1l0.3-1.6c0.8-0.5,1.7-0.8,2.8-0.8c2.4,0,3.7,1.3,3.7,3.5v5.7H451L450.7,195.6z M448.2,195.5
			c0.9,0,1.8-0.4,2.4-1v-2.4c-3,0.2-4.4,0.8-4.4,2C446.3,195.1,447,195.5,448.2,195.5z"/>
		<path class="st0" d="M456.7,187.7h4.2v2.5c1.2-1.8,2.7-2.6,4.4-2.6l0.1,1.6c-1.6,0-3.2,0.9-4.5,2.4v3.9h3.9v1.3h-8.1v-1.3h2.6V189
			h-2.6V187.7z"/>
		<path class="st0" d="M469,189.8v6.9h-1.4v-9h1l0.3,0.9c0.6-0.6,1.2-1,2-1c1,0,1.7,0.4,2.1,1.2c0.7-0.7,1.4-1.2,2.3-1.2
			c1.6,0,2.4,1,2.4,3.3v5.8h-1.4v-5.5c0-1.7-0.5-2.3-1.4-2.3c-0.6,0-1,0.3-1.6,0.8c0.1,0.3,0.1,0.6,0.1,1v5.9H472v-5.5
			c0-1.7-0.5-2.3-1.4-2.3C470,188.9,469.6,189.3,469,189.8z"/>
		<path class="st0" d="M480.4,192.2c0-2.9,1.8-4.7,4.2-4.7c2.7,0,4.1,1.8,4.1,4.6s-1.6,4.7-4.2,4.7
			C481.9,196.9,480.4,195,480.4,192.2z M487.2,192.2c0-2.1-1-3.3-2.6-3.3c-1.5,0-2.6,1.2-2.6,3.3c0,2.2,1.1,3.3,2.6,3.3
			S487.2,194.3,487.2,192.2z"/>
		<path class="st0" d="M498.6,195.7c-0.8,0.7-1.7,1.1-2.7,1.1c-1.9,0-3.1-1.1-3.1-3.7v-5.5h1.6v5.2c0,1.8,0.7,2.4,2,2.4
			c0.8,0,1.4-0.3,2.2-0.9v-6.7h1.6v9H499L498.6,195.7z"/>
		<path class="st0" d="M507.8,192.5l-1.3,1.5v2.7h-1.6v-13.2h1.6v8.6l3.7-4.4h1.9l-3.2,3.6l3.9,5.4h-1.9L507.8,192.5z"/>
		<path class="st0" d="M434.8,214h-1.6v-12.4h3.3c2.5,0,4.5,1.5,4.5,4.3c0,1.7-0.8,3.1-2.1,3.9l3,4.2h-2l-2.7-3.7
			c-0.2,0-0.4,0-0.6,0h-1.9v3.7H434.8z M436.2,208.9c2.1,0,3.1-1.1,3.1-2.8c0-1.9-1.1-3.1-3.1-3.1h-1.4v5.9L436.2,208.9L436.2,208.9
			z"/>
		<path class="st0" d="M444.7,205h5v7.8h3.3v1.3h-8.4v-1.3h3.5v-6.5h-3.5V205H444.7z M449.8,200.7v1.8h-1.9v-1.8H449.8z"/>
		<path class="st0" d="M461.4,214H460l-3.9-9h1.7l2.9,6.9l3-6.9h1.6L461.4,214z"/>
		<path class="st0" d="M473,214.2c-2.4,0-4.5-1.2-4.5-4.6c0-3.2,2-4.7,4.2-4.7c2.7,0,3.9,1.9,3.9,4.9H470c0.1,2.3,1.6,3.1,3.2,3.1
			c1.1,0,2-0.2,2.8-0.7l-0.2,1.4C475.2,214,474.3,214.2,473,214.2z M470.1,208.6h5.1c-0.2-1.7-1.1-2.5-2.5-2.5
			C471.6,206.2,470.4,206.8,470.1,208.6z"/>
		<path class="st0" d="M480.5,205h4.2v2.5c1.2-1.8,2.7-2.6,4.4-2.6l0.1,1.6c-1.6,0-3.2,0.9-4.5,2.4v3.9h3.9v1.3h-8.1v-1.3h2.6v-6.5
			h-2.6V205z"/>
	</g>
</g>
</svg>
